<?xml version="1.0" encoding="utf-8"?>
<!-- Generator: Adobe Illustrator 17.1.0, SVG Export Plug-In . SVG Version: 6.00 Build 0)  -->
<!DOCTYPE svg PUBLIC "-//W3C//DTD SVG 1.1//EN" "http://www.w3.org/Graphics/SVG/1.1/DTD/svg11.dtd">
<svg version="1.1" id="Layer_1" xmlns="http://www.w3.org/2000/svg" xmlns:xlink="http://www.w3.org/1999/xlink" x="0px" y="0px"
	 viewBox="0 0 150.2 51.9" enable-background="new 0 0 150.2 51.9" xml:space="preserve">
<g>
	<defs>
		<rect id="SVGID_1_" x="2.5" y="2.4" width="145.3" height="47.2"/>
	</defs>
	<clipPath id="SVGID_2_">
		<use xlink:href="#SVGID_1_"  overflow="visible"/>
	</clipPath>
	<path clip-path="url(#SVGID_2_)" fill="#F1F2F2" d="M135.8,2.4h-34.1c-6.6,0-12,5.4-12,12v12.2c0,6.6,5.4,12,12,12h23.1v11l11-11
		c6.6,0,12-5.4,12-12V14.4C147.8,7.7,142.5,2.4,135.8,2.4"/>
	<path clip-path="url(#SVGID_2_)" fill="#D1D3D4" d="M106.8,2.4H72.6c-6.6,0-12,5.4-12,12v12.2c0,6.6,5.4,12,12,12h23.1v11l11-11
		c6.6,0,12-5.4,12-12V14.4C118.8,7.7,113.4,2.4,106.8,2.4"/>
	<path clip-path="url(#SVGID_2_)" fill="#A7A9AC" d="M77.7,2.4H43.6c-6.6,0-12,5.4-12,12v12.2c0,6.6,5.4,12,12,12h23.1v11l11-11
		c6.6,0,12-5.4,12-12V14.4C89.7,7.7,84.3,2.4,77.7,2.4"/>
	<path clip-path="url(#SVGID_2_)" fill="#B2D345" d="M48.6,2.4H14.5c-6.6,0-12,5.4-12,12v12.2c0,6.6,5.4,12,12,12h23.1v11l11-11
		c6.6,0,12-5.4,12-12V14.4C60.6,7.7,55.3,2.4,48.6,2.4"/>
	<path clip-path="url(#SVGID_2_)" fill="#FFFFFF" d="M47.7,20.4c0,2.4-2,4.4-4.4,4.4c-2.4,0-4.4-2-4.4-4.4s2-4.4,4.4-4.4
		C45.7,16.1,47.7,18,47.7,20.4"/>
	<path clip-path="url(#SVGID_2_)" fill="#FFFFFF" d="M35.9,20.4c0,2.4-2,4.4-4.4,4.4s-4.4-2-4.4-4.4s2-4.4,4.4-4.4
		S35.9,18,35.9,20.4"/>
	<path clip-path="url(#SVGID_2_)" fill="#FFFFFF" d="M24.2,20.4c0,2.4-2,4.4-4.4,4.4s-4.4-2-4.4-4.4s2-4.4,4.4-4.4
		S24.2,18,24.2,20.4"/>
</g>
</svg>
