<?xml version="1.0" encoding="utf-8"?>
<!-- Generator: Adobe Illustrator 17.1.0, SVG Export Plug-In . SVG Version: 6.00 Build 0)  -->
<!DOCTYPE svg PUBLIC "-//W3C//DTD SVG 1.1//EN" "http://www.w3.org/Graphics/SVG/1.1/DTD/svg11.dtd">
<svg version="1.1" id="Layer_1" xmlns="http://www.w3.org/2000/svg" xmlns:xlink="http://www.w3.org/1999/xlink" x="0px" y="0px"
	 viewBox="0 0 112.2 41.8" enable-background="new 0 0 112.2 41.8" xml:space="preserve">
<g>
	<defs>
		<rect id="SVGID_1_" x="2.1" y="1.8" width="107.9" height="38.1"/>
	</defs>
	<clipPath id="SVGID_2_">
		<use xlink:href="#SVGID_1_"  overflow="visible"/>
	</clipPath>
	<path clip-path="url(#SVGID_2_)" fill="#F1F2F2" d="M110,40c0-9.6-7.8-17.4-17.4-17.4S75.2,30.4,75.2,40H110z M101.5,10.8
		c0,4.9-4,8.9-8.9,8.9s-8.9-4-8.9-8.9s4-8.9,8.9-8.9S101.5,5.8,101.5,10.8"/>
	<path clip-path="url(#SVGID_2_)" fill="#D1D3D4" d="M85.6,40c0-9.6-7.8-17.4-17.4-17.4S50.8,30.4,50.8,40H85.6z M77.2,10.8
		c0,4.9-4,8.9-8.9,8.9s-8.9-4-8.9-8.9s4-8.9,8.9-8.9S77.2,5.8,77.2,10.8"/>
	<path clip-path="url(#SVGID_2_)" fill="#A7A9AC" d="M61.3,40c0-9.6-7.8-17.4-17.4-17.4S26.5,30.4,26.5,40H61.3z M52.8,10.8
		c0,4.9-4,8.9-8.9,8.9s-8.9-4-8.9-8.9s4-8.9,8.9-8.9S52.8,5.8,52.8,10.8"/>
	<path clip-path="url(#SVGID_2_)" fill="#54C4CA" d="M36.9,40c0-9.6-7.8-17.4-17.4-17.4S2.1,30.4,2.1,40H36.9z M28.4,10.8
		c0,4.9-4,8.9-8.9,8.9s-8.9-4-8.9-8.9s4-8.9,8.9-8.9S28.4,5.8,28.4,10.8"/>
</g>
</svg>
