<?xml version="1.0" encoding="utf-8"?>
<!-- Generator: Adobe Illustrator 17.1.0, SVG Export Plug-In . SVG Version: 6.00 Build 0)  -->
<!DOCTYPE svg PUBLIC "-//W3C//DTD SVG 1.1//EN" "http://www.w3.org/Graphics/SVG/1.1/DTD/svg11.dtd">
<svg version="1.1" id="Layer_1" xmlns="http://www.w3.org/2000/svg" xmlns:xlink="http://www.w3.org/1999/xlink" x="0px" y="0px"
	 viewBox="0 0 78.2 53.9" enable-background="new 0 0 78.2 53.9" xml:space="preserve">
<g>
	<defs>
		<rect id="SVGID_1_" x="1.6" y="1.4" width="75" height="51"/>
	</defs>
	<clipPath id="SVGID_2_">
		<use xlink:href="#SVGID_1_"  overflow="visible"/>
	</clipPath>
	<path clip-path="url(#SVGID_2_)" fill="#D1D3D4" d="M28.6,13.4c0,0-12,0-12,12v15c0,0,0,12,12,12h36c0,0,12,0,12-12v-15
		c0,0,0-12-12-12H28.6z"/>
</g>
<rect x="15.6" y="4.7" transform="matrix(0.7071 0.7071 -0.7071 0.7071 20.0861 -8.1698)" fill="#B2D345" width="8.5" height="30.9"/>
<rect x="32" y="1.6" transform="matrix(0.707 -0.7072 0.7072 0.707 5.8342 25.8897)" fill="#B2D345" width="4.3" height="8.5"/>
<polygon fill="#B2D345" points="1.6,38.4 10.2,35.9 4.1,29.9 "/>
</svg>
